PathFileType	4	(X/Y/Z)	pose_F01_0-79.trc
DataRate	CameraRate	NumFrames	NumMarkers	Units	OrigDataRate	OrigDataStartFrame	OrigNumFrames
30	30	9	21	m	30	19	79
Frame#	Time	CHip			RHip			RKnee			RAnkle			RBigToe			RSmallToe			RHeel			LHip			LKnee			LAnkle			LBigToe			LSmallToe			LHeel			Neck			Nose			RShoulder			RElbow			RWrist			LShoulder			LElbow			LWrist			
		X1	Y1	Z1	X2	Y2	Z2	X3	Y3	Z3	X4	Y4	Z4	X5	Y5	Z5	X6	Y6	Z6	X7	Y7	Z7	X8	Y8	Z8	X9	Y9	Z9	X10	Y10	Z10	X11	Y11	Z11	X12	Y12	Z12	X13	Y13	Z13	X14	Y14	Z14	X15	Y15	Z15	X16	Y16	Z16	X17	Y17	Z17	X18	Y18	Z18	X19	Y19	Z19	X20	Y20	Z20	X21	Y21	Z21	
19	0.6333333333333333	-0.23316350903285332	1.8806349430419746	-0.4951701843177647	-0.24582996532335014	1.8760507673145619	-0.42300181763504435	-0.24649585444278138	1.7208037473003959	-0.3823407431806863	-0.2657131615716635	1.565944487098313	-0.32238949053393184	-0.23270226900394547	1.522132584770537	-0.35899469960792924	-0.23710101166486905	1.5227032536621181	-0.3203412615871975	-0.27500785269817335	1.5606970215979594	-0.31201718755206076	-0.2231830174680604	1.8852670922573738	-0.5627838558647544	-0.22146012140341584	1.729054867716304	-0.5894628802407803	-0.23232321967362948	1.5799093731299054	-0.6203343125484584	-0.19908712279480004	1.546000344396679	-0.6841694526812536	-0.19946743437513045	1.5541217028603278	-0.7074558193324588	-0.23624776241669793	1.565299077436226	-0.6014656628883925	-0.24041144418681334	2.054247282668375	-0.4940405915382956	-0.2183352442598693	2.12826697230151	-0.5204190653046099	-0.2539620652293895	2.0502479084419845	-0.40470508631784885	-0.22678921994441054	2.056963329968776	-0.3497140705650867	-0.22286632275104196	2.1236634659614424	-0.41101295243722563	-0.2285163530073294	2.058280532498641	-0.5784700532364856	-0.1769974442713814	2.0673044487095753	-0.7001095612023965	-0.18783981123921845	2.1371990105587444	-0.6593729771993655
20	0.6666666666666666	-0.23625155060319433	1.8804213433562649	-0.4875777730546875	-0.24770545313550305	1.876033763308937	-0.42073735054666345	-0.24749026304329827	1.7140841372154119	-0.3849362235259123	-0.26821531640052426	1.5620250526212713	-0.3186000614700089	-0.23317667331364167	1.5221152775270714	-0.3584758845166786	-0.23672576729616782	1.5227091279229719	-0.32082628647353434	-0.275623635804896	1.5595072042287614	-0.3105561997977784	-0.22517113419254492	1.8852671441016446	-0.5606818090335085	-0.22168486601204218	1.7305845771997612	-0.5893862455046939	-0.2327986220372232	1.5796203986809716	-0.6205464434697986	-0.20086951494462724	1.5461455821463668	-0.6800424461519231	-0.20106107094485123	1.5552843088133792	-0.7015857962704611	-0.23655905768896324	1.5652560588049134	-0.601676134580257	-0.24041469945169724	2.0527987746021314	-0.493396333454876	-0.22326793393509126	2.129429361091739	-0.5115392155805596	-0.2521851092827077	2.0490331332242837	-0.40675927093059405	-0.2208464705000191	2.071853892148333	-0.3505854992577893	-0.22364703252674947	2.1267755737279948	-0.4050770098310061	-0.2316804784840149	2.0566812269131542	-0.5706985816080187	-0.17918188775491728	2.0686435375954733	-0.6984399054915199	-0.18895815323784237	2.1417896804133942	-0.6538321685756477
21	0.7	-0.2361244799980609	1.8787943160405935	-0.487186515806023	-0.24771515510839737	1.873426765987447	-0.42023068475050795	-0.24757942672624608	1.7154254954197463	-0.3847982622677714	-0.26783909782697163	1.5620275111643147	-0.31942690708501364	-0.23365107762333784	1.5220979702836062	-0.357957069425428	-0.23635052292746658	1.5227150021838256	-0.32131131135987123	-0.2752132698665266	1.5592195285096642	-0.31139061468383555	-0.22417558787159894	1.8837071224416815	-0.557282728150334	-0.2223960551838309	1.7289862747351854	-0.5926363916798499	-0.23169764227568326	1.5794302269336877	-0.6216485947189667	-0.19956952383556484	1.5458229462639388	-0.6859246812768579	-0.20406705816415696	1.5543420674211712	-0.7029556278485822	-0.23687035296122858	1.5652130401736006	-0.6018866062721215	-0.2413707438965396	2.052591940314978	-0.4880563114511502	-0.22425861962276628	2.1300843339589006	-0.506202264436765	-0.2529312870802361	2.047580647415689	-0.4009046522226102	-0.23512405581077828	2.0745920977985683	-0.3343111753967449	-0.22641898880496972	2.122324705287835	-0.40404862496970995	-0.23072392476689466	2.0552573625729247	-0.5670145202468786	-0.17820563870380607	2.0737033898466213	-0.6960127997804872	-0.1912792504498213	2.144952402266973	-0.6436182204574907
22	0.7333333333333333	-0.23723172373160112	1.877538711365786	-0.4815532918700751	-0.2466890900845903	1.8733521608603005	-0.41686049168243006	-0.24699741921793406	1.7150123647735538	-0.3808203887215597	-0.266658813546201	1.560609163836037	-0.3204641197366296	-0.23173734721424916	1.5222092561514124	-0.36046047291965116	-0.23597527855876535	1.5227208764446793	-0.32179633624620807	-0.2757113823715976	1.5568398642917451	-0.31032840994675753	-0.22428727921572789	1.882579489915103	-0.5568975888364623	-0.2224296562402154	1.7291206738809555	-0.5925215365896678	-0.23059666251414332	1.5792400551864036	-0.6227507459681348	-0.19963357637837137	1.5459759460457319	-0.6858856944039545	-0.20103879342245734	1.5548662116503733	-0.7020337626993544	-0.23718164823349389	1.565170021542288	-0.602097077963986	-0.24526355240374725	2.05211730901198	-0.4753205169149007	-0.22718596580927342	2.12875382596978	-0.5064836329567193	-0.25640083363447996	2.04820862658084	-0.38801442718558343	-0.2264040176750074	2.074897499263553	-0.340763183674583	-0.22919094508318996	2.1178738368476755	-0.40302024010841375	-0.2317560174915044	2.0551837010485676	-0.5617636381064749	-0.18018744972297668	2.077198588436672	-0.6940210551292733	-0.199657432802326	2.142165015641772	-0.6336281039036462
23	0.7666666666666667	-0.23827995159284804	1.874951179560807	-0.4757606488383215	-0.24587495018094552	1.872064846584077	-0.4133133925331832	-0.24336248445347697	1.708946908196451	-0.37952301065263566	-0.26628021004731334	1.5584154638739418	-0.3207681980084798	-0.2317784223512966	1.5220955381444627	-0.36036267102429453	-0.237564717263146	1.5213443999844658	-0.3196034277494885	-0.2763524061211278	1.5562473649936357	-0.31452008554428607	-0.22343645331926532	1.880033022292248	-0.5533229836756022	-0.22161951751759415	1.7303091602899836	-0.589264178608553	-0.23367174756810447	1.5885662091433819	-0.6194004374757278	-0.1970826669280178	1.548002285933399	-0.6751104730304686	-0.19974121595611927	1.558190660050676	-0.6945364691405855	-0.24027589744788103	1.5775574850645742	-0.603189788866216	-0.24617192258470957	2.0519905480073177	-0.4698896390445508	-0.22914013822881235	2.1272771094971117	-0.5036086555435012	-0.25913129722500755	2.0479938386592784	-0.38042139590895657	-0.22539650749278814	2.063661870374584	-0.33396108409038194	-0.2319629013614102	2.113422968407516	-0.4019918552471176	-0.2307969854523243	2.055035412730502	-0.558517353073873	-0.18130989281957985	2.0793263153330845	-0.6885578769025956	-0.20179216748752515	2.1394217909136026	-0.6303570054238381
24	0.8	-0.2408985217666957	1.869258298387921	-0.4669100710849593	-0.2490417599758691	1.8666909342759561	-0.3991676818132929	-0.24225808949490413	1.7090655740779994	-0.38061636429874546	-0.2655980405384894	1.557251932696988	-0.3215101720221069	-0.23015880703293545	1.521795018992286	-0.35970507646314365	-0.23719437708482172	1.5215030416446016	-0.31847783217557346	-0.27605567480646515	1.556218985773543	-0.31365740086460503	-0.23155310200526516	1.8737769257867474	-0.5346107291688528	-0.2210293309951064	1.7252197205127362	-0.5895093788062754	-0.2327501832647081	1.5883882007236823	-0.6161689449680395	-0.195989500192542	1.5541656306486005	-0.6758944640373334	-0.2022391891336323	1.5647297875098782	-0.6875153757022441	-0.2391633415530082	1.5772878098411443	-0.5993316725279905	-0.24523417180877324	2.0476729408380128	-0.46497826962461275	-0.22924652073654633	2.1231389157114853	-0.5016947807076455	-0.25807845283095665	2.043247856301696	-0.37552619058328107	-0.23204038012655182	2.0505353818420327	-0.3261682644304089	-0.23473485763963045	2.1089720999673562	-0.4009634703858215	-0.23195299110948045	2.0520494280152084	-0.5521619690411689	-0.1792819890958857	2.0739614095313894	-0.6885422606562962	-0.2039880239567054	2.1316000674695266	-0.6242778159338295
25	0.8333333333333334	-0.24566028538548582	1.8641185378037086	-0.4648834319216294	-0.258628076990661	1.8612914765582036	-0.39611792220020553	-0.24081631708836335	1.7041362343513755	-0.3816934002849761	-0.26526139779459923	1.5566333080704484	-0.3170794751376693	-0.22853919171457435	1.521494499840109	-0.3590474819019927	-0.23682403690649742	1.5216616833047372	-0.31735223660165834	-0.2757589434918025	1.55619060655345	-0.312794716184924	-0.23847694452201185	1.868319451823098	-0.5303306172620993	-0.22081266886396358	1.727210609687822	-0.589844304364729	-0.23252240429936957	1.5948739288945342	-0.6037243497330314	-0.20192032888304298	1.563852422757756	-0.6537301544169003	-0.20450466227772682	1.5702841620536754	-0.673047458541579	-0.24375563209121512	1.5810968063931923	-0.5816699412625247	-0.24816475539208235	2.041124618434081	-0.4639712250638418	-0.22934702710299354	2.115055401990165	-0.49875082429035006	-0.2639343012906843	2.0379059174770373	-0.3759324984075392	-0.23868425276031552	2.037408893309481	-0.31837544477043594	-0.23750681391785072	2.1045212315271966	-0.3999350855245253	-0.23288825141582634	2.0460427849481566	-0.5532959628538211	-0.18056221034940537	2.0681689812785895	-0.6814457012199854	-0.21349312412740074	2.1200072304848487	-0.6139246381488394
26	0.8666666666666667	-0.2558875689331379	1.864116086679305	-0.4626967585947327	-0.26291536516984804	1.859360717358352	-0.40044648874486155	-0.2362413144522593	1.7029856184002687	-0.39153758827312185	-0.2650887377055911	1.555306651620023	-0.31729271896399086	-0.23063730994739678	1.522360851053336	-0.35692908465345763	-0.23645369672817312	1.521820324964873	-0.3162266410277433	-0.27546221217713984	1.5561622273333573	-0.31193203150524296	-0.24258193289958538	1.867611106864207	-0.5344716759774987	-0.2189127054860395	1.720900037565706	-0.5825769070373301	-0.24611509783297675	1.5968761234070679	-0.581374973252223	-0.21907628167519821	1.566192912160668	-0.636568850402128	-0.2220399055164787	1.576642623866523	-0.651738462222498	-0.256462337208643	1.5818798223038197	-0.5599549503228083	-0.25064372381027084	2.0351339643139723	-0.47008740291353435	-0.23062642215447793	2.104405368562342	-0.5010957401392101	-0.26352363144656604	2.0309137772889043	-0.3803760985676314	-0.2453281253940792	2.0242824047769297	-0.310582625110463	-0.24027877019607097	2.100070363087037	-0.39890670066322914	-0.23717579265439356	2.04168086794628	-0.5576941757183703	-0.18387326617999322	2.053030506796774	-0.6796048280950846	-0.21807274595934328	2.105657412502546	-0.6080920410006713
27	0.9	-0.25586883751729317	1.862672341606758	-0.4681110385927404	-0.2650117509722352	1.857159859578041	-0.40347052461645005	-0.23311008163880675	1.7047806128550234	-0.4044820646718091	-0.2666994595036988	1.5583351641991066	-0.32011054682704837	-0.23201490626722704	1.5222415254730435	-0.35624475118512067	-0.23948263852404558	1.5214470963186764	-0.31736975543692136	-0.27516548086247716	1.5561338481132645	-0.3110693468255619	-0.242252173412539	1.867148616601814	-0.5399348143187962	-0.2276312568068228	1.7156663448790614	-0.5770507823554738	-0.2562335271865418	1.5957540259799812	-0.5707184501048548	-0.23575090992349526	1.5666125191511944	-0.6202571084108828	-0.2412776510520882	1.5750719785199319	-0.6325061788846629	-0.26778245514422483	1.5838272115123253	-0.5487317794822982	-0.252961335835507	2.0311325312429065	-0.4767237023526339	-0.22802026953220758	2.096171820916607	-0.4997297256256782	-0.2641459091938298	2.0269219635417954	-0.389270610602863	-0.25197199802784287	2.011155916244378	-0.30278980545048995	-0.2430507264742912	2.0956194946468774	-0.397878315801933	-0.23859200440370826	2.0376055895095537	-0.5611518695220267	-0.19088788911846397	2.0377778805220936	-0.6713053148670307	-0.21837328832230665	2.092864035772325	-0.6159903913899986
